<mxfile host="65bd71144e">
    <diagram id="JpXC5bFoKHWfri-_4b_J" name="Page-1">
        <mxGraphModel dx="1722" dy="1162" grid="1" gridSize="10" guides="1" tooltips="1" connect="1" arrows="1" fold="1" page="1" pageScale="1" pageWidth="850" pageHeight="1100" math="0" shadow="0">
            <root>
                <mxCell id="0"/>
                <mxCell id="1" parent="0"/>
                <mxCell id="54" value="" style="rounded=0;whiteSpace=wrap;html=1;fillColor=#CCCCCC;strokeColor=none;" vertex="1" parent="1">
                    <mxGeometry x="500" y="580" width="120" height="100" as="geometry"/>
                </mxCell>
                <mxCell id="53" value="" style="rounded=0;whiteSpace=wrap;html=1;fillColor=#CCCCCC;strokeColor=none;" vertex="1" parent="1">
                    <mxGeometry x="340" y="580" width="120" height="100" as="geometry"/>
                </mxCell>
                <mxCell id="5" value="" style="rounded=0;whiteSpace=wrap;html=1;fillColor=#CCCCCC;strokeColor=none;" vertex="1" parent="1">
                    <mxGeometry x="170" y="210" width="460" height="110" as="geometry"/>
                </mxCell>
                <mxCell id="21" style="edgeStyle=none;html=1;exitX=1;exitY=0.5;exitDx=0;exitDy=0;entryX=0;entryY=0.5;entryDx=0;entryDy=0;strokeColor=#000000;strokeWidth=1;endArrow=classic;endFill=1;" edge="1" parent="1" source="2" target="3">
                    <mxGeometry relative="1" as="geometry"/>
                </mxCell>
                <mxCell id="2" value="コレクション&lt;br&gt;メールボックス&lt;br&gt;一覧" style="rounded=0;whiteSpace=wrap;html=1;" vertex="1" parent="1">
                    <mxGeometry x="190" y="230" width="100" height="60" as="geometry"/>
                </mxCell>
                <mxCell id="22" style="edgeStyle=none;html=1;exitX=1;exitY=0.5;exitDx=0;exitDy=0;entryX=0;entryY=0.5;entryDx=0;entryDy=0;strokeColor=#000000;strokeWidth=1;endArrow=classic;endFill=1;" edge="1" parent="1" source="3" target="4">
                    <mxGeometry relative="1" as="geometry"/>
                </mxCell>
                <mxCell id="3" value="コレクション&lt;br&gt;メッセージ&lt;br&gt;一覧" style="rounded=0;whiteSpace=wrap;html=1;" vertex="1" parent="1">
                    <mxGeometry x="350" y="230" width="100" height="60" as="geometry"/>
                </mxCell>
                <mxCell id="4" value="シングル&lt;br&gt;メッセージ&lt;br&gt;詳細" style="rounded=0;whiteSpace=wrap;html=1;" vertex="1" parent="1">
                    <mxGeometry x="510" y="230" width="100" height="60" as="geometry"/>
                </mxCell>
                <mxCell id="10" style="edgeStyle=none;html=1;exitX=1;exitY=0.5;exitDx=0;exitDy=0;entryX=0;entryY=0.5;entryDx=0;entryDy=0;endArrow=none;endFill=0;" edge="1" parent="1" source="6" target="7">
                    <mxGeometry relative="1" as="geometry"/>
                </mxCell>
                <mxCell id="14" style="edgeStyle=none;html=1;exitX=0.5;exitY=1;exitDx=0;exitDy=0;entryX=0.5;entryY=0;entryDx=0;entryDy=0;endArrow=none;endFill=0;strokeWidth=3;strokeColor=#999999;" edge="1" parent="1" source="6" target="2">
                    <mxGeometry relative="1" as="geometry"/>
                </mxCell>
                <mxCell id="6" value="メールボックス" style="rounded=0;whiteSpace=wrap;html=1;fillColor=none;" vertex="1" parent="1">
                    <mxGeometry x="190" y="110" width="100" height="30" as="geometry"/>
                </mxCell>
                <mxCell id="7" value="メッセージ" style="rounded=0;whiteSpace=wrap;html=1;fillColor=none;" vertex="1" parent="1">
                    <mxGeometry x="430" y="110" width="100" height="30" as="geometry"/>
                </mxCell>
                <mxCell id="8" value="オブジェクト" style="text;html=1;strokeColor=none;fillColor=none;align=center;verticalAlign=middle;whiteSpace=wrap;rounded=0;" vertex="1" parent="1">
                    <mxGeometry x="190" y="80" width="100" height="30" as="geometry"/>
                </mxCell>
                <mxCell id="9" value="オブジェクト" style="text;html=1;strokeColor=none;fillColor=none;align=center;verticalAlign=middle;whiteSpace=wrap;rounded=0;" vertex="1" parent="1">
                    <mxGeometry x="430" y="80" width="100" height="30" as="geometry"/>
                </mxCell>
                <mxCell id="11" value="＊" style="text;html=1;strokeColor=none;fillColor=none;align=center;verticalAlign=middle;whiteSpace=wrap;rounded=0;" vertex="1" parent="1">
                    <mxGeometry x="400" y="95" width="30" height="30" as="geometry"/>
                </mxCell>
                <mxCell id="12" value="モデル" style="text;html=1;strokeColor=none;fillColor=none;align=center;verticalAlign=middle;whiteSpace=wrap;rounded=0;" vertex="1" parent="1">
                    <mxGeometry x="50" y="110" width="100" height="30" as="geometry"/>
                </mxCell>
                <mxCell id="13" value="インタラクション" style="text;html=1;strokeColor=none;fillColor=none;align=center;verticalAlign=middle;whiteSpace=wrap;rounded=0;" vertex="1" parent="1">
                    <mxGeometry x="50" y="245" width="100" height="30" as="geometry"/>
                </mxCell>
                <mxCell id="15" style="edgeStyle=none;html=1;exitX=0.25;exitY=1;exitDx=0;exitDy=0;entryX=0.5;entryY=0;entryDx=0;entryDy=0;endArrow=none;endFill=0;strokeWidth=3;strokeColor=#999999;" edge="1" parent="1" source="7" target="3">
                    <mxGeometry relative="1" as="geometry">
                        <mxPoint x="250" y="150" as="sourcePoint"/>
                        <mxPoint x="250" y="240" as="targetPoint"/>
                    </mxGeometry>
                </mxCell>
                <mxCell id="16" style="edgeStyle=none;html=1;exitX=0.75;exitY=1;exitDx=0;exitDy=0;entryX=0.5;entryY=0;entryDx=0;entryDy=0;endArrow=none;endFill=0;strokeWidth=3;strokeColor=#999999;" edge="1" parent="1" source="7" target="4">
                    <mxGeometry relative="1" as="geometry">
                        <mxPoint x="465" y="150" as="sourcePoint"/>
                        <mxPoint x="410" y="240" as="targetPoint"/>
                    </mxGeometry>
                </mxCell>
                <mxCell id="17" value="ビュー" style="text;html=1;strokeColor=none;fillColor=none;align=center;verticalAlign=middle;whiteSpace=wrap;rounded=0;" vertex="1" parent="1">
                    <mxGeometry x="190" y="290" width="100" height="30" as="geometry"/>
                </mxCell>
                <mxCell id="18" value="ビュー" style="text;html=1;strokeColor=none;fillColor=none;align=center;verticalAlign=middle;whiteSpace=wrap;rounded=0;" vertex="1" parent="1">
                    <mxGeometry x="350" y="290" width="100" height="30" as="geometry"/>
                </mxCell>
                <mxCell id="19" value="ビュー" style="text;html=1;strokeColor=none;fillColor=none;align=center;verticalAlign=middle;whiteSpace=wrap;rounded=0;" vertex="1" parent="1">
                    <mxGeometry x="510" y="290" width="100" height="30" as="geometry"/>
                </mxCell>
                <mxCell id="20" value="画面" style="text;html=1;strokeColor=none;fillColor=none;align=center;verticalAlign=middle;whiteSpace=wrap;rounded=0;" vertex="1" parent="1">
                    <mxGeometry x="350" y="320" width="100" height="30" as="geometry"/>
                </mxCell>
                <mxCell id="23" value="ナビゲー&lt;br&gt;ション" style="text;html=1;strokeColor=none;fillColor=none;align=center;verticalAlign=middle;whiteSpace=wrap;rounded=0;" vertex="1" parent="1">
                    <mxGeometry x="290" y="220" width="60" height="30" as="geometry"/>
                </mxCell>
                <mxCell id="24" value="ナビゲー&lt;br&gt;ション" style="text;html=1;strokeColor=none;fillColor=none;align=center;verticalAlign=middle;whiteSpace=wrap;rounded=0;" vertex="1" parent="1">
                    <mxGeometry x="450" y="220" width="60" height="30" as="geometry"/>
                </mxCell>
                <mxCell id="25" value="デスクトップレイアウト（１画面複数ペイン）" style="text;html=1;strokeColor=none;fillColor=none;align=left;verticalAlign=middle;whiteSpace=wrap;rounded=0;" vertex="1" parent="1">
                    <mxGeometry x="40" y="40" width="280" height="30" as="geometry"/>
                </mxCell>
                <mxCell id="26" value="" style="endArrow=none;html=1;strokeColor=#000000;strokeWidth=1;" edge="1" parent="1">
                    <mxGeometry width="50" height="50" relative="1" as="geometry">
                        <mxPoint x="40" y="70" as="sourcePoint"/>
                        <mxPoint x="640" y="70" as="targetPoint"/>
                    </mxGeometry>
                </mxCell>
                <mxCell id="28" value="" style="rounded=0;whiteSpace=wrap;html=1;fillColor=#CCCCCC;strokeColor=none;" vertex="1" parent="1">
                    <mxGeometry x="180" y="580" width="120" height="100" as="geometry"/>
                </mxCell>
                <mxCell id="29" style="edgeStyle=none;html=1;exitX=1;exitY=0.5;exitDx=0;exitDy=0;entryX=0;entryY=0.5;entryDx=0;entryDy=0;strokeColor=#000000;strokeWidth=1;endArrow=classic;endFill=1;" edge="1" parent="1" source="30" target="32">
                    <mxGeometry relative="1" as="geometry"/>
                </mxCell>
                <mxCell id="30" value="コレクション&lt;br&gt;メールボックス&lt;br&gt;一覧" style="rounded=0;whiteSpace=wrap;html=1;" vertex="1" parent="1">
                    <mxGeometry x="190" y="590" width="100" height="60" as="geometry"/>
                </mxCell>
                <mxCell id="31" style="edgeStyle=none;html=1;exitX=1;exitY=0.5;exitDx=0;exitDy=0;entryX=0;entryY=0.5;entryDx=0;entryDy=0;strokeColor=#000000;strokeWidth=1;endArrow=classic;endFill=1;" edge="1" parent="1" source="32" target="33">
                    <mxGeometry relative="1" as="geometry"/>
                </mxCell>
                <mxCell id="32" value="コレクション&lt;br&gt;メッセージ&lt;br&gt;一覧" style="rounded=0;whiteSpace=wrap;html=1;" vertex="1" parent="1">
                    <mxGeometry x="350" y="590" width="100" height="60" as="geometry"/>
                </mxCell>
                <mxCell id="33" value="シングル&lt;br&gt;メッセージ&lt;br&gt;詳細" style="rounded=0;whiteSpace=wrap;html=1;" vertex="1" parent="1">
                    <mxGeometry x="510" y="590" width="100" height="60" as="geometry"/>
                </mxCell>
                <mxCell id="34" style="edgeStyle=none;html=1;exitX=1;exitY=0.5;exitDx=0;exitDy=0;entryX=0;entryY=0.5;entryDx=0;entryDy=0;endArrow=none;endFill=0;" edge="1" parent="1" source="36" target="37">
                    <mxGeometry relative="1" as="geometry"/>
                </mxCell>
                <mxCell id="35" style="edgeStyle=none;html=1;exitX=0.5;exitY=1;exitDx=0;exitDy=0;entryX=0.5;entryY=0;entryDx=0;entryDy=0;endArrow=none;endFill=0;strokeWidth=3;strokeColor=#999999;" edge="1" parent="1" source="36" target="30">
                    <mxGeometry relative="1" as="geometry"/>
                </mxCell>
                <mxCell id="36" value="メールボックス" style="rounded=0;whiteSpace=wrap;html=1;fillColor=none;" vertex="1" parent="1">
                    <mxGeometry x="190" y="470" width="100" height="30" as="geometry"/>
                </mxCell>
                <mxCell id="37" value="メッセージ" style="rounded=0;whiteSpace=wrap;html=1;fillColor=none;" vertex="1" parent="1">
                    <mxGeometry x="430" y="470" width="100" height="30" as="geometry"/>
                </mxCell>
                <mxCell id="38" value="オブジェクト" style="text;html=1;strokeColor=none;fillColor=none;align=center;verticalAlign=middle;whiteSpace=wrap;rounded=0;" vertex="1" parent="1">
                    <mxGeometry x="190" y="440" width="100" height="30" as="geometry"/>
                </mxCell>
                <mxCell id="39" value="オブジェクト" style="text;html=1;strokeColor=none;fillColor=none;align=center;verticalAlign=middle;whiteSpace=wrap;rounded=0;" vertex="1" parent="1">
                    <mxGeometry x="430" y="440" width="100" height="30" as="geometry"/>
                </mxCell>
                <mxCell id="40" value="＊" style="text;html=1;strokeColor=none;fillColor=none;align=center;verticalAlign=middle;whiteSpace=wrap;rounded=0;" vertex="1" parent="1">
                    <mxGeometry x="400" y="455" width="30" height="30" as="geometry"/>
                </mxCell>
                <mxCell id="41" value="モデル" style="text;html=1;strokeColor=none;fillColor=none;align=center;verticalAlign=middle;whiteSpace=wrap;rounded=0;" vertex="1" parent="1">
                    <mxGeometry x="50" y="470" width="100" height="30" as="geometry"/>
                </mxCell>
                <mxCell id="42" value="インタラクション" style="text;html=1;strokeColor=none;fillColor=none;align=center;verticalAlign=middle;whiteSpace=wrap;rounded=0;" vertex="1" parent="1">
                    <mxGeometry x="50" y="605" width="100" height="30" as="geometry"/>
                </mxCell>
                <mxCell id="43" style="edgeStyle=none;html=1;exitX=0.25;exitY=1;exitDx=0;exitDy=0;entryX=0.5;entryY=0;entryDx=0;entryDy=0;endArrow=none;endFill=0;strokeWidth=3;strokeColor=#999999;" edge="1" parent="1" source="37" target="32">
                    <mxGeometry relative="1" as="geometry">
                        <mxPoint x="250" y="510" as="sourcePoint"/>
                        <mxPoint x="250" y="600" as="targetPoint"/>
                    </mxGeometry>
                </mxCell>
                <mxCell id="44" style="edgeStyle=none;html=1;exitX=0.75;exitY=1;exitDx=0;exitDy=0;entryX=0.5;entryY=0;entryDx=0;entryDy=0;endArrow=none;endFill=0;strokeWidth=3;strokeColor=#999999;" edge="1" parent="1" source="37" target="33">
                    <mxGeometry relative="1" as="geometry">
                        <mxPoint x="465" y="510" as="sourcePoint"/>
                        <mxPoint x="410" y="600" as="targetPoint"/>
                    </mxGeometry>
                </mxCell>
                <mxCell id="45" value="ビュー" style="text;html=1;strokeColor=none;fillColor=none;align=center;verticalAlign=middle;whiteSpace=wrap;rounded=0;" vertex="1" parent="1">
                    <mxGeometry x="190" y="650" width="100" height="30" as="geometry"/>
                </mxCell>
                <mxCell id="46" value="ビュー" style="text;html=1;strokeColor=none;fillColor=none;align=center;verticalAlign=middle;whiteSpace=wrap;rounded=0;" vertex="1" parent="1">
                    <mxGeometry x="350" y="650" width="100" height="30" as="geometry"/>
                </mxCell>
                <mxCell id="47" value="ビュー" style="text;html=1;strokeColor=none;fillColor=none;align=center;verticalAlign=middle;whiteSpace=wrap;rounded=0;" vertex="1" parent="1">
                    <mxGeometry x="510" y="650" width="100" height="30" as="geometry"/>
                </mxCell>
                <mxCell id="48" value="画面" style="text;html=1;strokeColor=none;fillColor=none;align=center;verticalAlign=middle;whiteSpace=wrap;rounded=0;" vertex="1" parent="1">
                    <mxGeometry x="350" y="680" width="100" height="30" as="geometry"/>
                </mxCell>
                <mxCell id="49" value="ナビゲー&lt;br&gt;ション" style="text;html=1;strokeColor=none;fillColor=none;align=center;verticalAlign=middle;whiteSpace=wrap;rounded=0;" vertex="1" parent="1">
                    <mxGeometry x="290" y="580" width="60" height="30" as="geometry"/>
                </mxCell>
                <mxCell id="50" value="ナビゲー&lt;br&gt;ション" style="text;html=1;strokeColor=none;fillColor=none;align=center;verticalAlign=middle;whiteSpace=wrap;rounded=0;" vertex="1" parent="1">
                    <mxGeometry x="450" y="580" width="60" height="30" as="geometry"/>
                </mxCell>
                <mxCell id="51" value="モバイルレイアウト（１画面ペイン）" style="text;html=1;strokeColor=none;fillColor=none;align=left;verticalAlign=middle;whiteSpace=wrap;rounded=0;" vertex="1" parent="1">
                    <mxGeometry x="40" y="400" width="280" height="30" as="geometry"/>
                </mxCell>
                <mxCell id="52" value="" style="endArrow=none;html=1;strokeColor=#000000;strokeWidth=1;" edge="1" parent="1">
                    <mxGeometry width="50" height="50" relative="1" as="geometry">
                        <mxPoint x="40" y="430" as="sourcePoint"/>
                        <mxPoint x="640" y="430" as="targetPoint"/>
                    </mxGeometry>
                </mxCell>
                <mxCell id="55" value="画面" style="text;html=1;strokeColor=none;fillColor=none;align=center;verticalAlign=middle;whiteSpace=wrap;rounded=0;" vertex="1" parent="1">
                    <mxGeometry x="190" y="680" width="100" height="30" as="geometry"/>
                </mxCell>
                <mxCell id="56" value="画面" style="text;html=1;strokeColor=none;fillColor=none;align=center;verticalAlign=middle;whiteSpace=wrap;rounded=0;" vertex="1" parent="1">
                    <mxGeometry x="510" y="680" width="100" height="30" as="geometry"/>
                </mxCell>
            </root>
        </mxGraphModel>
    </diagram>
</mxfile>